<svg xmlns="http://www.w3.org/2000/svg" width="92.171" height="58.513" viewBox="0 0 92.171 58.513">
  <g id="Group_15" data-name="Group 15" transform="translate(-1024.013 527.122)">
    <path id="Path_30" data-name="Path 30" d="M1033.654-431.248c-.014-.049-.028-.1-.042-.155-.049-.176-.091-.373-.133-.584.042.211.091.407.141.584a1.461,1.461,0,0,1,.035.155" transform="translate(-3.901 -39.213)"/>
    <path id="Path_31" data-name="Path 31" d="M1034.521-428.488c-.175-.408-.323-.809-.457-1.224.134.415.289.816.457,1.224" transform="translate(-4.143 -40.15)"/>
    <path id="Path_32" data-name="Path 32" d="M1040.245-443.691v.837a.484.484,0,0,0,.479.479h3.215a.478.478,0,0,0,.471-.479v-19.018a.477.477,0,0,0-.471-.478h-3.215a.483.483,0,0,0-.479.478v.675c0,.232-.141.212-.211.19l-.028-.014a6.065,6.065,0,0,0-.627-.38,10.55,10.55,0,0,0-5.178-1.274,10.544,10.544,0,0,0-5.186,1.274,9.2,9.2,0,0,0-3.658,3.623,9.53,9.53,0,0,0-1.084,2.885,10.227,10.227,0,0,0-.169,1.063,12.591,12.591,0,0,0-.092,1.477,12.377,12.377,0,0,0,.085,1.464c.014.183.042.359.071.548.056.345.127.69.211,1.02.042.176.091.338.14.507.106.323.225.647.352.95a9.708,9.708,0,0,0,.443.9,9.216,9.216,0,0,0,3.588,3.623,10.237,10.237,0,0,0,5.115,1.294,10.809,10.809,0,0,0,5.235-1.294c.239-.134.478-.275.7-.429,0,0,.289-.216.289.077m-.612-5.319a5.816,5.816,0,0,1-2.315,2.244,6.6,6.6,0,0,1-3.23.8,6.225,6.225,0,0,1-3.151-.8,5.675,5.675,0,0,1-2.217-2.23,6.819,6.819,0,0,1-.809-3.349,6.541,6.541,0,0,1,.83-3.328,5.753,5.753,0,0,1,2.265-2.245,6.528,6.528,0,0,1,3.194-.781,6.583,6.583,0,0,1,3.194.781,5.8,5.8,0,0,1,2.266,2.245,6.615,6.615,0,0,1,.822,3.328,6.461,6.461,0,0,1-.851,3.335" transform="translate(0 -26.564)"/>
    <path id="Path_33" data-name="Path 33" d="M1069.038-461.806a6.881,6.881,0,0,1,3.1-.841.453.453,0,0,1,.467.455v3.355a.454.454,0,0,1-.454.454h-.6a5.031,5.031,0,0,0-3.679,1.233q-1.25,1.232-1.251,4.276v10.055a.453.453,0,0,1-.454.454h-3.222a.454.454,0,0,1-.454-.454v-19.06a.455.455,0,0,1,.454-.454h3.222a.454.454,0,0,1,.454.454v2.166a.08.08,0,0,0,.149.041,6.456,6.456,0,0,1,2.262-2.135" transform="translate(-15.862 -26.575)"/>
    <path id="Path_34" data-name="Path 34" d="M1097.839-450.816h-14.212a.34.34,0,0,0-.337.376,5.437,5.437,0,0,0,1.738,3.466,5.606,5.606,0,0,0,3.914,1.449,4.841,4.841,0,0,0,4.374-2.194,1.308,1.308,0,0,1,1.1-.595h2.792a.623.623,0,0,1,.566.877,9.011,9.011,0,0,1-2.943,3.634,9.621,9.621,0,0,1-5.888,1.758,10.19,10.19,0,0,1-5.128-1.287,9.135,9.135,0,0,1-3.551-3.624,11.045,11.045,0,0,1-1.287-5.417,11.325,11.325,0,0,1,1.25-5.418,8.811,8.811,0,0,1,3.515-3.606,10.47,10.47,0,0,1,5.2-1.268,10.17,10.17,0,0,1,5.036,1.233,8.7,8.7,0,0,1,3.443,3.461,10.43,10.43,0,0,1,1.232,5.128q0,.717-.059,1.346a.755.755,0,0,1-.755.684m-3.816-3.334a.306.306,0,0,0,.305-.32,4.636,4.636,0,0,0-1.618-3.34,5.827,5.827,0,0,0-3.95-1.377,5.3,5.3,0,0,0-3.659,1.358,5.544,5.544,0,0,0-1.75,3.261.361.361,0,0,0,.356.417Z" transform="translate(-22.655 -26.567)"/>
    <path id="Path_35" data-name="Path 35" d="M1151.06-443.333a9.23,9.23,0,0,1-3.587-3.624,10.918,10.918,0,0,1-1.3-5.417,10.724,10.724,0,0,1,1.34-5.4,9.272,9.272,0,0,1,3.66-3.624,10.622,10.622,0,0,1,5.183-1.268,10.629,10.629,0,0,1,5.182,1.268,9.278,9.278,0,0,1,3.659,3.624,10.724,10.724,0,0,1,1.341,5.4,10.5,10.5,0,0,1-1.377,5.4,9.527,9.527,0,0,1-3.75,3.642,10.81,10.81,0,0,1-5.237,1.287,10.224,10.224,0,0,1-5.11-1.287m8.1-3.061a5.808,5.808,0,0,0,2.266-2.284,7.34,7.34,0,0,0,.871-3.7,7.494,7.494,0,0,0-.835-3.679,5.618,5.618,0,0,0-2.211-2.265,6.045,6.045,0,0,0-2.971-.76,5.945,5.945,0,0,0-2.953.76,5.442,5.442,0,0,0-2.156,2.265,7.771,7.771,0,0,0-.8,3.679,7.007,7.007,0,0,0,1.649,4.982,5.45,5.45,0,0,0,4.15,1.757,6.144,6.144,0,0,0,2.989-.76" transform="translate(-50.35 -26.567)"/>
    <path id="Path_36" data-name="Path 36" d="M1137.944-473.125a.729.729,0,0,1-.59.851l-7.783,1.379a.289.289,0,0,0-.238.284V-455.4a2.1,2.1,0,0,0,.528,1.612,2.582,2.582,0,0,0,1.794.493h.851a.647.647,0,0,1,.648.654v2.139a.648.648,0,0,1-.648.647h-1.576a6.271,6.271,0,0,1-4.277-1.3,5.382,5.382,0,0,1-1.485-4.243v-14.4a.265.265,0,0,0-.312-.261l-4.993.891a.265.265,0,0,0-.218.261V-455.4a2.107,2.107,0,0,0,.52,1.612,2.6,2.6,0,0,0,1.8.493h.851a.653.653,0,0,1,.655.654v2.139a.647.647,0,0,1-.647.647h-1.583a6.284,6.284,0,0,1-4.278-1.3,5.406,5.406,0,0,1-1.484-4.243v-25.5a.7.7,0,0,1,.7-.7h2.766a.705.705,0,0,1,.7.7v7.444a.265.265,0,0,0,.311.262l4.993-.884a.265.265,0,0,0,.219-.261v-6.561a.7.7,0,0,1,.7-.7h2.759a.705.705,0,0,1,.7.7v5.7a.289.289,0,0,0,.339.285l6.992-1.242a.729.729,0,0,1,.851.591Z" transform="translate(-37.698 -18.765)"/>
    <path id="Path_37" data-name="Path 37" d="M1100.144-505.532a75.17,75.17,0,0,0-33.968,11.827.643.643,0,0,1-.838-.956l7.181-8.435a.055.055,0,0,0-.058-.088,75.248,75.248,0,0,0-21.061,9.479.64.64,0,0,1-.831-.956l27.4-32.182a.787.787,0,0,1,1.344.253l3.784,10.867a.087.087,0,0,0,.149.028l9.491-11.148a.793.793,0,0,1,1.351.253l6.881,19.791a.959.959,0,0,1-.823,1.267" transform="translate(-10.88)"/>
  </g>
</svg>
