<svg xmlns="http://www.w3.org/2000/svg"  viewBox="0 0 24 24" width="24px" height="24px"><path d="M 8 3 C 5.2504839 3 3 5.2504839 3 8 L 3 16 C 3 18.749516 5.2504839 21 8 21 L 16 21 C 18.749516 21 21 18.749516 21 16 L 21 8 C 21 5.2504839 18.749516 3 16 3 L 8 3 z M 8 5 L 16 5 C 17.668484 5 19 6.3315161 19 8 L 19 16 C 19 17.668484 17.668484 19 16 19 L 8 19 C 6.3315161 19 5 17.668484 5 16 L 5 8 C 5 6.3315161 6.3315161 5 8 5 z M 17 6 A 1 1 0 0 0 17 8 A 1 1 0 0 0 17 6 z M 12 7 C 10.416667 7 9.1018922 7.6297556 8.2519531 8.5859375 C 7.402014 9.5421194 7 10.777778 7 12 C 7 13.222222 7.402014 14.457881 8.2519531 15.414062 C 9.1018922 16.370244 10.416667 17 12 17 C 13.583333 17 14.898108 16.370244 15.748047 15.414062 C 16.597986 14.457882 17 13.222222 17 12 C 17 10.777778 16.597986 9.5421194 15.748047 8.5859375 C 14.898108 7.6297556 13.583333 7 12 7 z M 12 9 C 13.083333 9 13.768559 9.3702444 14.251953 9.9140625 C 14.735347 10.457881 15 11.222222 15 12 C 15 12.777778 14.735347 13.542119 14.251953 14.085938 C 13.768559 14.629755 13.083333 15 12 15 C 10.916667 15 10.231441 14.629756 9.7480469 14.085938 C 9.2646532 13.542118 9 12.777778 9 12 C 9 11.222222 9.2646532 10.457881 9.7480469 9.9140625 C 10.231441 9.3702444 10.916667 9 12 9 z"/></svg>